<?xml version="1.0" encoding="utf-8"?>
<!-- Generator: Adobe Illustrator 21.0.0, SVG Export Plug-In . SVG Version: 6.00 Build 0)  -->
<svg version="1.1" id="Layer_1" xmlns="http://www.w3.org/2000/svg" xmlns:xlink="http://www.w3.org/1999/xlink" x="0px" y="0px"
	 viewBox="0 0 111.2 30.6" style="enable-background:new 0 0 111.2 30.6;" xml:space="preserve">
<style type="text/css">
	.st0{enable-background:new    ;}
	.st1{fill:#FFFFFF;}
	.st2{font-family:'Arial-BoldMT';}
	.st3{font-size:25.8275px;}
	.st4{fill:#F58A6C;}
	.st5{fill:url(#Subtraction_1_1_);}
</style>
<g id="Group_2" transform="translate(-372.804 -44.291)">
	<text transform="matrix(0.8568 0 0 1 409.0003 69.5683)" class="st0"><tspan x="0" y="0" class="st1 st2 st3">Nti</tspan><tspan x="34.4" y="0" class="st4 st2 st3">tech</tspan></text>
	
		<linearGradient id="Subtraction_1_1_" gradientUnits="userSpaceOnUse" x1="168.5957" y1="445.4978" x2="169.3707" y2="444.7729" gradientTransform="matrix(7.9035 4.5631 9.6265 -16.6736 -5237.5454 6708.5649)">
		<stop  offset="0" style="stop-color:#FE8464"/>
		<stop  offset="1" style="stop-color:#FE6E9A"/>
	</linearGradient>
	<path id="Subtraction_1" class="st5" d="M380.7,66.7L380.7,66.7c-2.1-1.2-3.6-3.3-4.2-5.7c-0.6-2.5-0.2-5.1,1.1-7.2
		c1.2-2.2,3.3-3.8,5.7-4.6c2.3-0.7,4.9-0.4,7,0.8L380.7,66.7L380.7,66.7z"/>
	<path id="Subtraction_2" class="st1" d="M383.9,68L383.9,68c6.5,3.8,14.9,1.5,18.7-5c1.8-3.1,2.3-6.9,1.4-10.4
		c-0.9-3.5-3.2-6.5-6.4-8.3L383.9,68z"/>
</g>
</svg>
